<svg width="214" height="81" viewBox="0 0 214 81" fill="none" xmlns="http://www.w3.org/2000/svg">
<ellipse cx="31" cy="30" rx="31" ry="30" fill="#4ADE80"/>
<path d="M31.3181 55.2859C28.0981 55.2859 25.2047 54.7259 22.6381 53.6059C20.1181 52.4392 18.1347 50.8526 16.6881 48.8459C15.2414 46.7926 14.4947 44.4359 14.4481 41.7759H21.2381C21.4714 44.0626 22.4047 45.9992 24.0381 47.5859C25.7181 49.1259 28.1447 49.8959 31.3181 49.8959C34.3514 49.8959 36.7314 49.1492 38.4581 47.6559C40.2314 46.1159 41.1181 44.1559 41.1181 41.7759C41.1181 39.9092 40.6048 38.3926 39.5781 37.2259C38.5514 36.0592 37.2681 35.1726 35.7281 34.5659C34.1881 33.9592 32.1114 33.3059 29.4981 32.6059C26.2781 31.7659 23.6881 30.9259 21.7281 30.0859C19.8147 29.2459 18.1581 27.9392 16.7581 26.1659C15.4047 24.3459 14.7281 21.9192 14.7281 18.8859C14.7281 16.2259 15.4047 13.8692 16.7581 11.8159C18.1114 9.76256 20.0014 8.1759 22.4281 7.0559C24.9014 5.9359 27.7247 5.3759 30.8981 5.3759C35.4714 5.3759 39.2048 6.51923 42.0981 8.8059C45.0381 11.0926 46.6948 14.1259 47.0681 17.9059H40.0681C39.8347 16.0392 38.8547 14.4059 37.1281 13.0059C35.4014 11.5592 33.1147 10.8359 30.2681 10.8359C27.6081 10.8359 25.4381 11.5359 23.7581 12.9359C22.0781 14.2892 21.2381 16.2026 21.2381 18.6759C21.2381 20.4492 21.7281 21.8959 22.7081 23.0159C23.7347 24.1359 24.9714 24.9992 26.4181 25.6059C27.9114 26.1659 29.9881 26.8192 32.6481 27.5659C35.8681 28.4526 38.4581 29.3392 40.4181 30.2259C42.3781 31.0659 44.0581 32.3959 45.4581 34.2159C46.8581 35.9892 47.5581 38.4159 47.5581 41.4959C47.5581 43.8759 46.9281 46.1159 45.6681 48.2159C44.4081 50.3159 42.5414 52.0192 40.0681 53.3259C37.5947 54.6326 34.6781 55.2859 31.3181 55.2859Z" fill="white"/>
<path d="M75.6011 22.912C77.0891 22.912 78.4331 23.236 79.6331 23.884C80.8331 24.508 81.7691 25.456 82.4411 26.728C83.1371 28 83.4851 29.548 83.4851 31.372V43H80.2451V31.84C80.2451 29.872 79.7531 28.372 78.7691 27.34C77.7851 26.284 76.4411 25.756 74.7371 25.756C73.0091 25.756 71.6291 26.296 70.5971 27.376C69.5891 28.456 69.0851 30.028 69.0851 32.092V43H65.8091V16.36H69.0851V26.08C69.7331 25.072 70.6211 24.292 71.7491 23.74C72.9011 23.188 74.1851 22.912 75.6011 22.912ZM97.4405 43.324C95.5925 43.324 93.9125 42.904 92.4005 42.064C90.9125 41.224 89.7365 40.036 88.8725 38.5C88.0325 36.94 87.6125 35.14 87.6125 33.1C87.6125 31.084 88.0445 29.308 88.9085 27.772C89.7965 26.212 90.9965 25.024 92.5085 24.208C94.0205 23.368 95.7125 22.948 97.5845 22.948C99.4565 22.948 101.148 23.368 102.66 24.208C104.172 25.024 105.36 26.2 106.224 27.736C107.112 29.272 107.556 31.06 107.556 33.1C107.556 35.14 107.1 36.94 106.188 38.5C105.3 40.036 104.088 41.224 102.552 42.064C101.016 42.904 99.3125 43.324 97.4405 43.324ZM97.4405 40.444C98.6165 40.444 99.7205 40.168 100.752 39.616C101.784 39.064 102.612 38.236 103.236 37.132C103.884 36.028 104.208 34.684 104.208 33.1C104.208 31.516 103.896 30.172 103.272 29.068C102.648 27.964 101.832 27.148 100.824 26.62C99.8165 26.068 98.7245 25.792 97.5485 25.792C96.3485 25.792 95.2445 26.068 94.2365 26.62C93.2525 27.148 92.4605 27.964 91.8605 29.068C91.2605 30.172 90.9605 31.516 90.9605 33.1C90.9605 34.708 91.2485 36.064 91.8245 37.168C92.4245 38.272 93.2165 39.1 94.2005 39.652C95.1845 40.18 96.2645 40.444 97.4405 40.444ZM115.14 26.908C115.788 25.78 116.748 24.844 118.02 24.1C119.316 23.332 120.816 22.948 122.52 22.948C124.272 22.948 125.856 23.368 127.272 24.208C128.712 25.048 129.84 26.236 130.656 27.772C131.472 29.284 131.88 31.048 131.88 33.064C131.88 35.056 131.472 36.832 130.656 38.392C129.84 39.952 128.712 41.164 127.272 42.028C125.856 42.892 124.272 43.324 122.52 43.324C120.84 43.324 119.352 42.952 118.056 42.208C116.784 41.44 115.812 40.492 115.14 39.364V52.36H111.864V23.272H115.14V26.908ZM128.532 33.064C128.532 31.576 128.232 30.28 127.632 29.176C127.032 28.072 126.216 27.232 125.184 26.656C124.176 26.08 123.06 25.792 121.836 25.792C120.636 25.792 119.52 26.092 118.488 26.692C117.48 27.268 116.664 28.12 116.04 29.248C115.44 30.352 115.14 31.636 115.14 33.1C115.14 34.588 115.44 35.896 116.04 37.024C116.664 38.128 117.48 38.98 118.488 39.58C119.52 40.156 120.636 40.444 121.836 40.444C123.06 40.444 124.176 40.156 125.184 39.58C126.216 38.98 127.032 38.128 127.632 37.024C128.232 35.896 128.532 34.576 128.532 33.064ZM139.468 26.908C140.116 25.78 141.076 24.844 142.348 24.1C143.644 23.332 145.144 22.948 146.848 22.948C148.6 22.948 150.184 23.368 151.6 24.208C153.04 25.048 154.168 26.236 154.984 27.772C155.8 29.284 156.208 31.048 156.208 33.064C156.208 35.056 155.8 36.832 154.984 38.392C154.168 39.952 153.04 41.164 151.6 42.028C150.184 42.892 148.6 43.324 146.848 43.324C145.168 43.324 143.68 42.952 142.384 42.208C141.112 41.44 140.14 40.492 139.468 39.364V52.36H136.192V23.272H139.468V26.908ZM152.86 33.064C152.86 31.576 152.56 30.28 151.96 29.176C151.36 28.072 150.544 27.232 149.512 26.656C148.504 26.08 147.388 25.792 146.164 25.792C144.964 25.792 143.848 26.092 142.816 26.692C141.808 27.268 140.992 28.12 140.368 29.248C139.768 30.352 139.468 31.636 139.468 33.1C139.468 34.588 139.768 35.896 140.368 37.024C140.992 38.128 141.808 38.98 142.816 39.58C143.848 40.156 144.964 40.444 146.164 40.444C147.388 40.444 148.504 40.156 149.512 39.58C150.544 38.98 151.36 38.128 151.96 37.024C152.56 35.896 152.86 34.576 152.86 33.064ZM162.212 20.068C161.588 20.068 161.06 19.852 160.628 19.42C160.196 18.988 159.98 18.46 159.98 17.836C159.98 17.212 160.196 16.684 160.628 16.252C161.06 15.82 161.588 15.604 162.212 15.604C162.812 15.604 163.316 15.82 163.724 16.252C164.156 16.684 164.372 17.212 164.372 17.836C164.372 18.46 164.156 18.988 163.724 19.42C163.316 19.852 162.812 20.068 162.212 20.068ZM163.796 23.272V43H160.52V23.272H163.796ZM178.991 22.912C181.391 22.912 183.335 23.644 184.823 25.108C186.311 26.548 187.055 28.636 187.055 31.372V43H183.815V31.84C183.815 29.872 183.323 28.372 182.339 27.34C181.355 26.284 180.011 25.756 178.307 25.756C176.579 25.756 175.199 26.296 174.167 27.376C173.159 28.456 172.655 30.028 172.655 32.092V43H169.379V23.272H172.655V26.08C173.303 25.072 174.179 24.292 175.283 23.74C176.411 23.188 177.647 22.912 178.991 22.912ZM200.543 22.948C202.247 22.948 203.735 23.32 205.007 24.064C206.303 24.808 207.263 25.744 207.887 26.872V23.272H211.199V43.432C211.199 45.232 210.815 46.828 210.047 48.22C209.279 49.636 208.175 50.74 206.735 51.532C205.319 52.324 203.663 52.72 201.767 52.72C199.175 52.72 197.015 52.108 195.287 50.884C193.559 49.66 192.539 47.992 192.227 45.88H195.467C195.827 47.08 196.571 48.04 197.699 48.76C198.827 49.504 200.183 49.876 201.767 49.876C203.567 49.876 205.031 49.312 206.159 48.184C207.311 47.056 207.887 45.472 207.887 43.432V39.292C207.239 40.444 206.279 41.404 205.007 42.172C203.735 42.94 202.247 43.324 200.543 43.324C198.791 43.324 197.195 42.892 195.755 42.028C194.339 41.164 193.223 39.952 192.407 38.392C191.591 36.832 191.183 35.056 191.183 33.064C191.183 31.048 191.591 29.284 192.407 27.772C193.223 26.236 194.339 25.048 195.755 24.208C197.195 23.368 198.791 22.948 200.543 22.948ZM207.887 33.1C207.887 31.612 207.587 30.316 206.987 29.212C206.387 28.108 205.571 27.268 204.539 26.692C203.531 26.092 202.415 25.792 201.191 25.792C199.967 25.792 198.851 26.08 197.843 26.656C196.835 27.232 196.031 28.072 195.431 29.176C194.831 30.28 194.531 31.576 194.531 33.064C194.531 34.576 194.831 35.896 195.431 37.024C196.031 38.128 196.835 38.98 197.843 39.58C198.851 40.156 199.967 40.444 201.191 40.444C202.415 40.444 203.531 40.156 204.539 39.58C205.571 38.98 206.387 38.128 206.987 37.024C207.587 35.896 207.887 34.588 207.887 33.1Z" fill="black"/>
<path d="M71.6315 58.2V73H69.8115V58.2H71.6315ZM102.042 67.48C102.042 66.36 102.268 65.38 102.722 64.54C103.175 63.6867 103.795 63.0267 104.582 62.56C105.382 62.0933 106.268 61.86 107.242 61.86C108.202 61.86 109.035 62.0667 109.742 62.48C110.448 62.8933 110.975 63.4133 111.322 64.04V62.04H113.162V73H111.322V70.96C110.962 71.6 110.422 72.1333 109.702 72.56C108.995 72.9733 108.168 73.18 107.222 73.18C106.248 73.18 105.368 72.94 104.582 72.46C103.795 71.98 103.175 71.3067 102.722 70.44C102.268 69.5733 102.042 68.5867 102.042 67.48ZM111.322 67.5C111.322 66.6733 111.155 65.9533 110.822 65.34C110.488 64.7267 110.035 64.26 109.462 63.94C108.902 63.6067 108.282 63.44 107.602 63.44C106.922 63.44 106.302 63.6 105.742 63.92C105.182 64.24 104.735 64.7067 104.402 65.32C104.068 65.9333 103.902 66.6533 103.902 67.48C103.902 68.32 104.068 69.0533 104.402 69.68C104.735 70.2933 105.182 70.7667 105.742 71.1C106.302 71.42 106.922 71.58 107.602 71.58C108.282 71.58 108.902 71.42 109.462 71.1C110.035 70.7667 110.488 70.2933 110.822 69.68C111.155 69.0533 111.322 68.3267 111.322 67.5Z" fill="#4ADE80"/>
<path d="M75.6734 60.26C75.3267 60.26 75.0334 60.14 74.7934 59.9C74.5534 59.66 74.4334 59.3667 74.4334 59.02C74.4334 58.6733 74.5534 58.38 74.7934 58.14C75.0334 57.9 75.3267 57.78 75.6734 57.78C76.0067 57.78 76.2867 57.9 76.5134 58.14C76.7534 58.38 76.8734 58.6733 76.8734 59.02C76.8734 59.3667 76.7534 59.66 76.5134 59.9C76.2867 60.14 76.0067 60.26 75.6734 60.26ZM76.5534 62.04V73H74.7334V62.04H76.5534ZM83.5352 73.18C82.6952 73.18 81.9419 73.04 81.2752 72.76C80.6086 72.4667 80.0819 72.0667 79.6952 71.56C79.3086 71.04 79.0952 70.4467 79.0552 69.78H80.9352C80.9886 70.3267 81.2419 70.7733 81.6952 71.12C82.1619 71.4667 82.7686 71.64 83.5152 71.64C84.2086 71.64 84.7552 71.4867 85.1552 71.18C85.5552 70.8733 85.7552 70.4867 85.7552 70.02C85.7552 69.54 85.5419 69.1867 85.1152 68.96C84.6886 68.72 84.0286 68.4867 83.1352 68.26C82.3219 68.0467 81.6552 67.8333 81.1352 67.62C80.6286 67.3933 80.1886 67.0667 79.8152 66.64C79.4552 66.2 79.2752 65.6267 79.2752 64.92C79.2752 64.36 79.4419 63.8467 79.7752 63.38C80.1086 62.9133 80.5819 62.5467 81.1952 62.28C81.8086 62 82.5086 61.86 83.2952 61.86C84.5086 61.86 85.4886 62.1667 86.2352 62.78C86.9819 63.3933 87.3819 64.2333 87.4352 65.3H85.6152C85.5752 64.7267 85.3419 64.2667 84.9152 63.92C84.5019 63.5733 83.9419 63.4 83.2352 63.4C82.5819 63.4 82.0619 63.54 81.6752 63.82C81.2886 64.1 81.0952 64.4667 81.0952 64.92C81.0952 65.28 81.2086 65.58 81.4352 65.82C81.6752 66.0467 81.9686 66.2333 82.3152 66.38C82.6752 66.5133 83.1686 66.6667 83.7952 66.84C84.5819 67.0533 85.2219 67.2667 85.7152 67.48C86.2086 67.68 86.6286 67.9867 86.9752 68.4C87.3352 68.8133 87.5219 69.3533 87.5352 70.02C87.5352 70.62 87.3686 71.16 87.0352 71.64C86.7019 72.12 86.2286 72.5 85.6152 72.78C85.0152 73.0467 84.3219 73.18 83.5352 73.18ZM92.3245 63.54V70C92.3245 70.5333 92.4378 70.9133 92.6645 71.14C92.8911 71.3533 93.2845 71.46 93.8445 71.46H95.1845V73H93.5445C92.5311 73 91.7711 72.7667 91.2645 72.3C90.7578 71.8333 90.5045 71.0667 90.5045 70V63.54H89.0845V62.04H90.5045V59.28H92.3245V62.04H95.1845V63.54H92.3245ZM118.057 64.06C118.417 63.4333 118.951 62.9133 119.657 62.5C120.377 62.0733 121.211 61.86 122.157 61.86C123.131 61.86 124.011 62.0933 124.797 62.56C125.597 63.0267 126.224 63.6867 126.677 64.54C127.131 65.38 127.357 66.36 127.357 67.48C127.357 68.5867 127.131 69.5733 126.677 70.44C126.224 71.3067 125.597 71.98 124.797 72.46C124.011 72.94 123.131 73.18 122.157 73.18C121.224 73.18 120.397 72.9733 119.677 72.56C118.971 72.1333 118.431 71.6067 118.057 70.98V78.2H116.237V62.04H118.057V64.06ZM125.497 67.48C125.497 66.6533 125.331 65.9333 124.997 65.32C124.664 64.7067 124.211 64.24 123.637 63.92C123.077 63.6 122.457 63.44 121.777 63.44C121.111 63.44 120.491 63.6067 119.917 63.94C119.357 64.26 118.904 64.7333 118.557 65.36C118.224 65.9733 118.057 66.6867 118.057 67.5C118.057 68.3267 118.224 69.0533 118.557 69.68C118.904 70.2933 119.357 70.7667 119.917 71.1C120.491 71.42 121.111 71.58 121.777 71.58C122.457 71.58 123.077 71.42 123.637 71.1C124.211 70.7667 124.664 70.2933 124.997 69.68C125.331 69.0533 125.497 68.32 125.497 67.48ZM131.573 64.06C131.933 63.4333 132.466 62.9133 133.173 62.5C133.893 62.0733 134.726 61.86 135.673 61.86C136.646 61.86 137.526 62.0933 138.313 62.56C139.113 63.0267 139.74 63.6867 140.193 64.54C140.646 65.38 140.873 66.36 140.873 67.48C140.873 68.5867 140.646 69.5733 140.193 70.44C139.74 71.3067 139.113 71.98 138.313 72.46C137.526 72.94 136.646 73.18 135.673 73.18C134.74 73.18 133.913 72.9733 133.193 72.56C132.486 72.1333 131.946 71.6067 131.573 70.98V78.2H129.753V62.04H131.573V64.06ZM139.013 67.48C139.013 66.6533 138.846 65.9333 138.513 65.32C138.18 64.7067 137.726 64.24 137.153 63.92C136.593 63.6 135.973 63.44 135.293 63.44C134.626 63.44 134.006 63.6067 133.433 63.94C132.873 64.26 132.42 64.7333 132.073 65.36C131.74 65.9733 131.573 66.6867 131.573 67.5C131.573 68.3267 131.74 69.0533 132.073 69.68C132.42 70.2933 132.873 70.7667 133.433 71.1C134.006 71.42 134.626 71.58 135.293 71.58C135.973 71.58 136.593 71.42 137.153 71.1C137.726 70.7667 138.18 70.2933 138.513 69.68C138.846 69.0533 139.013 68.32 139.013 67.48Z" fill="black"/>
<line y1="67.5" x2="64" y2="67.5" stroke="black"/>
<line x1="147" y1="67.5" x2="211" y2="67.5" stroke="black"/>
</svg>
